# xmcd
#
# Track frame offsets:
#  150
#  15476
#  33504
#  59019
#  73387
#  86059
#  101717
#  123958
#  141902
#  156625
#
# Disc length: 2314 seconds
#
# Revision: 1
# Processed by: cddbd v1.5.1PL0 Copyright (c) Steve Scherf et al.
# Submitted via: Collectorz.com_Music_Collector 6.9
#
DISCID=9509080a
DTITLE=Randy Dawson - D'Nile Blues
DYEAR=2005
DGENRE=Blues
TTITLE0=Shiver
TTITLE1=Randy's Blues
TTITLE2=Singing 4U
TTITLE3=Benefit Blues
TTITLE4=These Shoes
TTITLE5=Irish Queen
TTITLE6=Half A World Away
TTITLE7=Standing On Shaky Ground
TTITLE8=Maniac Insomniac
TTITLE9=D'Nile Blues
EXTD=
EXTT0=
EXTT1=
EXTT2=
EXTT3=
EXTT4=
EXTT5=
EXTT6=
EXTT7=
EXTT8=
EXTT9=
PLAYORDER=
